<mxfile host="app.diagrams.net" modified="2024-07-12T01:05:59.298Z" agent="Mozilla/5.0 (Windows NT 10.0; Win64; x64) AppleWebKit/537.36 (KHTML, like Gecko) Chrome/126.0.0.0 Safari/537.36" version="24.6.5" etag="ZTJbN5PBbFpV0u0SUvki" type="github">
  <diagram name="第 1 页" id="36jfJxeSUtHcrYM0Xg4I">
    <mxGraphModel>
      <root>
        <mxCell id="0" />
        <mxCell id="1" parent="0" />
      </root>
    </mxGraphModel>
  </diagram>
</mxfile>
